<?xml version="1.0" encoding="UTF-8" standalone="no"?>
<!-- Created with Inkscape (http://www.inkscape.org/) -->

<svg
   width="52.784378mm"
   height="39.54089mm"
   viewBox="0 0 52.784378 39.54089"
   version="1.1"
   id="svg5"
   xml:space="preserve"
   inkscape:version="1.2.2 (b0a8486541, 2022-12-01)"
   sodipodi:docname="mail.svg"
   xmlns:inkscape="http://www.inkscape.org/namespaces/inkscape"
   xmlns:sodipodi="http://sodipodi.sourceforge.net/DTD/sodipodi-0.dtd"
   xmlns="http://www.w3.org/2000/svg"
   xmlns:svg="http://www.w3.org/2000/svg"><sodipodi:namedview
     id="namedview7"
     pagecolor="#505050"
     bordercolor="#eeeeee"
     borderopacity="1"
     inkscape:showpageshadow="0"
     inkscape:pageopacity="0"
     inkscape:pagecheckerboard="0"
     inkscape:deskcolor="#505050"
     inkscape:document-units="mm"
     showgrid="false"
     inkscape:zoom="1.087256"
     inkscape:cx="-35.410244"
     inkscape:cy="119.10718"
     inkscape:window-width="1366"
     inkscape:window-height="659"
     inkscape:window-x="0"
     inkscape:window-y="51"
     inkscape:window-maximized="1"
     inkscape:current-layer="layer1" /><defs
     id="defs2" /><g
     inkscape:label="Layer 1"
     inkscape:groupmode="layer"
     id="layer1"
     transform="translate(-81.542903,-102.78468)"><path
       style="fill:#ffffff;stroke-width:0.264583;fill-opacity:0.99000001"
       d="m 92.258943,142.02865 c -1.89177,-0.11854 -4.00513,-0.14859 -4.69635,-0.0668 l -1.25678,0.14873 v -0.4217 -0.42171 h -0.52916 -0.52917 v -0.81176 -0.81177 l -0.76845,0.54718 c -1.00636,0.7166 -1.22662,0.69135 -1.57372,-0.18042 -0.39071,-0.98131 -1.28147,-21.00718 -1.35341,-30.42708 l -0.009,-1.12448 h 0.52917 0.52917 v -0.90881 c 0,-0.49985 0.12367,-1.23411 0.27483,-1.6317 l 0.27484,-0.72287 -0.34098,-0.21286 -0.34099,-0.21286 0.29674,-0.47055 0.29674,-0.47055 0.89388,0.0328 c 0.49165,0.018 2.67983,0.19164 4.86265,0.3858 5.09866,0.45354 9.52041,0.44754 19.182287,-0.026 6.91912,-0.33913 17.22115,-0.49106 19.05,-0.28094 0.3638,0.0418 1.49489,-0.005 2.51354,-0.10431 l 1.85208,-0.18031 1.17387,0.61567 c 0.64562,0.33862 1.30046,0.82903 1.45521,1.0898 l 0.28134,0.47413 -0.60539,0.46065 -0.60538,0.46065 0.39713,4.0923 0.39713,4.09231 0.0679,9.78958 0.0679,9.78959 -0.45127,1.9178 c -0.2482,1.0548 -0.62905,2.34329 -0.84633,2.86332 -0.39942,0.95596 -0.93531,1.02454 -0.93531,0.11969 0,-0.27055 -0.0734,-0.68328 -0.16319,-0.91718 l -0.16319,-0.42526 -0.36598,0.30373 c -0.20129,0.16705 -0.37093,0.55704 -0.37699,0.86665 -0.0159,0.81455 -1.63404,2.52485 -2.66978,2.8219 l -0.88759,0.25456 -15.74445,-0.0407 c -8.65945,-0.0224 -17.292267,-0.13766 -19.184037,-0.25619 z m 18.635427,-2.59845 c 1.39218,-0.14742 4.13858,-0.38609 6.10311,-0.53038 1.96453,-0.14429 4.61367,-0.33959 5.88698,-0.434 1.27331,-0.0944 2.3151,-0.26226 2.3151,-0.37302 0,-0.11076 -1.10132,-1.0776 -2.44739,-2.14853 -2.80599,-2.23244 -9.33482,-8.50725 -9.8774,-9.49308 -0.20043,-0.36417 -0.6106,-0.95016 -0.91149,-1.3022 l -0.54706,-0.64007 -1.37656,1.33536 c -0.7571,0.73444 -1.69147,1.40856 -2.07637,1.49803 -0.87128,0.20253 -2.58294,-0.38652 -4.27125,-1.46991 l -1.2895,-0.82747 -3.829557,3.81165 c -3.38232,3.3665 -9.36561,9.94694 -9.56056,10.51475 -0.10808,0.31479 18.980167,0.36613 21.881947,0.0589 z m -21.273927,-6.40794 c 4.77857,-4.94288 9.38511,-9.94179 9.37379,-10.17224 -0.006,-0.12978 -1.04816,-0.96395 -2.3151,-1.85371 -2.21278,-1.55401 -6.98153,-5.45294 -10.17488,-8.31896 l -1.52135,-1.36542 v 2.53448 c 0,3.82113 0.50782,19.68312 0.68107,21.27331 l 0.15178,1.39315 0.70805,-0.50995 c 0.38943,-0.28047 1.78292,-1.62177 3.09664,-2.98066 z m 38.538727,-3.99206 -0.12202,-7.20989 0.33014,-5.50507 c 0.18157,-3.02778 0.26292,-5.57228 0.18076,-5.65443 -0.24762,-0.24763 -14.66512,11.34645 -14.71185,11.83079 -0.0454,0.47076 7.17138,7.43675 10.56962,10.20229 0.50932,0.4145 1.58088,1.38048 2.38124,2.14662 0.80037,0.76614 1.46397,1.39448 1.47467,1.39629 0.0107,0.002 -0.0355,-3.24115 -0.10256,-7.2066 z m -19.12165,-7.40833 c 1.6119,-1.482 4.68216,-4.17319 5.84329,-5.12187 0.50933,-0.41613 0.98558,-0.81878 1.05834,-0.89479 0.71371,-0.74557 8.32508,-6.90173 9.48987,-7.67553 l 0.59742,-0.39688 -9.78682,-0.0584 c -5.38276,-0.0321 -11.84935,-0.19333 -14.37021,-0.35821 -4.519657,-0.2956 -14.505257,-0.56384 -14.505257,-0.38965 0,0.0795 3.23131,2.49272 7.40833,5.53268 0.80037,0.58249 1.51474,1.1282 1.5875,1.2127 0.1148,0.13331 1.18303,1.01959 3.684307,3.05676 0.35735,0.29104 1.13308,0.95716 1.72385,1.48026 0.59077,0.5231 1.36323,1.17794 1.71656,1.45521 1.06954,0.83927 3.32046,2.87218 3.41452,3.0838 0.207,0.46575 0.9963,0.12392 2.1383,-0.92604 z"
       id="path880" /><path
       style="display:none;fill:#000000;stroke-width:0.264583"
       d="m 99.589982,141.14927 c -0.238372,-0.3638 -0.567225,-0.66146 -0.730784,-0.66146 -0.163559,0 -0.835725,-0.44114 -1.493703,-0.9803 -0.657978,-0.53916 -1.920397,-1.50967 -2.805375,-2.15668 -2.141504,-1.56565 -3.197624,-2.49764 -4.728684,-4.17286 l -1.277345,-1.39762 0.308643,-0.5767 0.308642,-0.57671 -0.43478,-3.73467 c -0.23913,-2.05407 -0.656106,-6.11592 -0.926614,-9.02634 l -0.491834,-5.29167 2.170297,-2.77812 c 1.193664,-1.52797 2.570551,-3.34367 3.05975,-4.0349 0.489199,-0.69122 0.99001,-1.25677 1.112913,-1.25677 0.122904,0 0.579689,-0.38695 1.015078,-0.85989 l 0.791618,-0.8599 0.273192,0.45777 0.273192,0.45776 3.760107,-0.0297 c 2.068055,-0.0163 5.188855,0.10323 6.935105,0.26565 1.74625,0.16242 5.37766,0.29904 8.0698,0.30359 l 4.89479,0.008 2.38125,3.05283 c 1.30968,1.67905 2.56916,3.37385 2.79883,3.76622 l 0.41759,0.71339 -0.19547,3.175 c -0.1075,1.74625 -0.20612,4.62443 -0.21914,6.39596 -0.013,1.77153 -0.16406,3.8291 -0.33563,4.57238 l -0.31195,1.35143 -1.3417,1.13072 c -0.73793,0.62189 -1.75842,1.42182 -2.26774,1.77761 l -0.92604,0.6469 -2.24896,0.21313 c -1.23693,0.11722 -5.5689,0.26217 -9.6266,0.32209 -4.05771,0.0599 -7.43167,0.16297 -7.49768,0.22898 -0.066,0.066 -0.18059,0.81405 -0.25461,1.66229 l -0.134577,1.54226 0.940917,0.90152 0.94092,0.90152 7.28665,-0.15604 7.28665,-0.15605 v 0.62798 c 0,0.34538 -0.12391,0.70454 -0.27535,0.79815 -0.24517,0.15152 -0.19005,0.58868 0.20767,1.64699 0.0684,0.1819 -0.067,0.33073 -0.30089,0.33073 -0.23385,0 -0.42518,0.16163 -0.42518,0.35918 v 0.35919 l -1.65365,0.18125 c -7.04209,0.77191 -11.62921,1.21145 -12.66957,1.21402 l -1.22634,0.003 z m 0.0047,-19.51302 c -0.0029,-2.36472 0.08522,-4.85994 0.195805,-5.54494 l 0.201061,-1.24546 1.498562,-0.93735 c 0.82421,-0.51555 1.59137,-0.93736 1.70479,-0.93736 0.11343,0 0.56137,0.56555 0.99544,1.25677 l 0.78921,1.25677 0.009,2.64584 c 0.005,1.4552 0.0965,2.76993 0.20346,2.92161 0.10692,0.15167 0.61111,0.47485 1.12043,0.71817 l 0.92604,0.4424 0.30817,-1.11505 c 0.1695,-0.61328 0.5083,-2.06755 0.75289,-3.23172 l 0.44473,-2.11667 1.62357,-1.52135 c 0.89297,-0.83674 1.8093,-1.52135 2.03629,-1.52135 0.227,0 0.91115,0.50786 1.52034,1.12858 l 1.10762,1.12858 0.072,5.28757 0.072,5.28756 1.19062,0.1705 1.19063,0.17049 0.29375,-0.36893 c 0.16157,-0.20291 0.48899,-0.36893 0.7276,-0.36893 h 0.43386 v -5.59903 -5.59903 l -2.40098,-2.32892 -2.40098,-2.32892 -1.98683,-0.0461 -1.98683,-0.0461 -1.63983,1.62525 -1.63983,1.62525 -0.44982,-0.72884 c -0.2474,-0.40086 -0.7967,-1.14073 -1.22066,-1.64415 l -0.77086,-0.91531 -0.39888,0.33104 -0.39888,0.33104 -0.0994,-0.29835 -0.0995,-0.29835 -3.29972,1.08116 c -1.814843,0.59464 -3.433671,1.17041 -3.597393,1.27949 l -0.297678,0.19834 -0.563384,5.42395 c -0.309862,2.98318 -0.56286,5.92196 -0.562219,6.53061 l 0.0012,1.10665 0.463021,0.12183 c 0.684646,0.18015 2.765339,0.67393 3.373438,0.80058 0.291041,0.0606 0.536882,0.12401 0.546313,0.14089 0.0094,0.0169 0.01478,-1.90407 0.01189,-4.26878 z"
       id="path862" /></g></svg>
